<?xml version="1.0" encoding="UTF-8" standalone="no"?>
<!-- Created with Inkscape (http://www.inkscape.org/) -->

<svg
   version="1.1"
   id="svg1"
   width="21"
   height="21"
   viewBox="0 0 21 21"
   sodipodi:docname="instagram.svg"
   inkscape:version="1.3.2 (091e20ef0f, 2023-11-25)"
   xmlns:inkscape="http://www.inkscape.org/namespaces/inkscape"
   xmlns:sodipodi="http://sodipodi.sourceforge.net/DTD/sodipodi-0.dtd"
   xmlns="http://www.w3.org/2000/svg"
   xmlns:svg="http://www.w3.org/2000/svg">
  <defs
     id="defs1" />
  <sodipodi:namedview
     id="namedview1"
     pagecolor="#ffffff"
     bordercolor="#000000"
     borderopacity="0.25"
     inkscape:showpageshadow="2"
     inkscape:pageopacity="0.0"
     inkscape:pagecheckerboard="0"
     inkscape:deskcolor="#d1d1d1"
     inkscape:zoom="28.704115"
     inkscape:cx="7.0024803"
     inkscape:cy="11.043713"
     inkscape:window-width="1920"
     inkscape:window-height="1047"
     inkscape:window-x="0"
     inkscape:window-y="0"
     inkscape:window-maximized="1"
     inkscape:current-layer="g1" />
  <g
     inkscape:groupmode="layer"
     inkscape:label="Image"
     id="g1">
    <path
       style="fill:#000000;stroke-width:1.55832"
       d="M 9.601931,20.32673 C 7.5999955,20.120303 5.7638968,19.362907 4.2554963,18.121302 2.3689973,16.568475 1.1143283,14.357486 0.75792613,11.957843 0.36725354,9.3274659 1.0391431,6.7063772 2.6607407,4.5348244 3.013724,4.0621288 4.0644571,3.0113957 4.5371529,2.6584123 7.2321787,0.64591297 10.619555,0.11197348 13.781896,1.2011978 c 0.222481,0.076631 0.681891,0.2752958 1.020912,0.4414781 1.117209,0.5476377 1.761919,1.010072 2.659286,1.9074379 0.881564,0.8815631 1.387439,1.5838117 1.906357,2.6463677 0.45663,0.9350116 0.760117,1.9288571 0.90979,2.9793454 0.09557,0.6707978 0.09653,1.9980981 0.0019,2.6582281 -0.240725,1.679354 -0.898501,3.264686 -1.924734,4.638873 -0.355024,0.4754 -1.404749,1.525124 -1.880148,1.880148 -1.356693,1.01317 -2.882081,1.655902 -4.515085,1.902461 -0.589705,0.08904 -1.823852,0.126285 -2.3582399,0.07119 z m 3.273753,-4.198111 c 1.07984,-0.07785 1.719435,-0.321781 2.302842,-0.878256 0.597297,-0.569726 0.875883,-1.271167 0.952903,-2.399282 0.04932,-0.722289 0.04887,-3.9752501 -6.45e-4,-4.7029912 C 16.089504,7.5414247 15.979066,7.0214031 15.811306,6.643903 15.528911,6.0084201 14.931566,5.4298671 14.287732,5.1682519 13.613828,4.8944213 13.010676,4.8424408 10.507269,4.8424408 c -1.885327,0 -2.6811225,0.033629 -3.1550164,0.1333133 C 6.2927743,5.1986217 5.4694092,5.8924321 5.1215465,6.8554589 4.8903794,7.4954282 4.8739422,7.6913215 4.8541268,10.042643 c -0.018498,2.194168 0.011843,3.084602 0.1233401,3.614375 0.087235,0.414698 0.2703291,0.852685 0.4801304,1.148539 0.5887976,0.830294 1.3855746,1.233846 2.6091365,1.321476 0.6267673,0.0449 4.1920362,0.04606 4.8089542,0.0016 z M 7.8883746,15.085828 c -1.0498979,-0.126083 -1.6927671,-0.680131 -1.917963,-1.652986 -0.060025,-0.259337 -0.066883,-0.559298 -0.066883,-2.927901 0,-2.3686024 0.00686,-2.6685659 0.066883,-2.9279012 C 6.1694684,6.7171045 6.7194329,6.16714 7.5793682,5.9680834 c 0.2593352,-0.060027 0.5592987,-0.066882 2.9279008,-0.066882 2.939286,0 2.930208,-6.886e-4 3.489754,0.2650388 0.518152,0.2460693 0.895035,0.7538581 1.047102,1.4108005 0.06003,0.2593351 0.06688,0.5592986 0.06688,2.9279013 0,2.368603 -0.0069,2.668563 -0.06688,2.927901 -0.151109,0.652822 -0.518734,1.147727 -1.04483,1.406593 -0.532014,0.261778 -0.533169,0.261872 -3.318665,0.27194 -1.3772677,0.0051 -2.6337833,-0.0066 -2.7922554,-0.02554 z m 3.2564894,-1.750954 c 0.768842,-0.169717 1.469734,-0.6814 1.877147,-1.370406 0.504925,-0.853911 0.504925,-2.0542084 0,-2.9234783 C 12.835196,8.7193703 12.292839,8.1770136 11.971219,7.9901973 11.097523,7.482703 9.9180961,7.4826157 9.0433179,7.9899807 8.72168,8.1765289 8.1788573,8.7193516 7.992309,9.0409897 7.4849442,9.9157683 7.4850315,11.095197 7.9925258,11.968891 c 0.186816,0.321619 0.7291729,0.863977 1.0507921,1.050791 0.6161506,0.357898 1.3854111,0.473273 2.1015461,0.315192 z M 10.069398,12.331548 C 9.1334583,12.105007 8.5023839,11.173447 8.6479159,10.23323 8.8059221,9.2124238 9.7567739,8.4993014 10.76601,8.6446962 c 1.027979,0.1481017 1.756997,1.1216179 1.599907,2.1364988 -0.168227,1.086856 -1.235296,1.80722 -2.296519,1.550353 z M 13.769756,8.1139395 C 13.917344,8.0581833 14.088481,7.8919273 14.152627,7.7420086 14.338776,7.3069522 14.006504,6.806539 13.531482,6.806539 c -0.476863,0 -0.805417,0.4974244 -0.620645,0.9396443 0.135559,0.3244165 0.528418,0.4926282 0.858919,0.3677562 z"
       id="path1" />
  </g>
</svg>
